<svg id="visual" viewBox="0 0 960 540" width="960" height="540" xmlns="http://www.w3.org/2000/svg" xmlns:xlink="http://www.w3.org/1999/xlink" version="1.1"><rect x="0" y="0" width="960" height="540" fill="#43abee"></rect><path d="M0 378L160 427L320 374L480 383L640 399L800 359L960 424L960 541L800 541L640 541L480 541L320 541L160 541L0 541Z" fill="#0a4af5"></path><path d="M0 420L160 396L320 441L480 382L640 397L800 400L960 384L960 541L800 541L640 541L480 541L320 541L160 541L0 541Z" fill="#233cde"></path><path d="M0 418L160 462L320 445L480 419L640 413L800 414L960 425L960 541L800 541L640 541L480 541L320 541L160 541L0 541Z" fill="#2c2fc7"></path><path d="M0 462L160 464L320 448L480 436L640 476L800 477L960 445L960 541L800 541L640 541L480 541L320 541L160 541L0 541Z" fill="#2f21b1"></path><path d="M0 462L160 501L320 473L480 499L640 503L800 490L960 499L960 541L800 541L640 541L480 541L320 541L160 541L0 541Z" fill="#2f129c"></path><path d="M0 491L160 496L320 510L480 501L640 521L800 523L960 494L960 541L800 541L640 541L480 541L320 541L160 541L0 541Z" fill="#2c0087"></path></svg>