<svg id="visual" viewBox="0 0 960 540" width="960" height="540" xmlns="http://www.w3.org/2000/svg" xmlns:xlink="http://www.w3.org/1999/xlink" version="1.1"><rect x="0" y="0" width="960" height="540" fill="#4e54c8"></rect><path d="M0 427L80 402L160 441L240 434L320 438L400 434L480 426L560 423L640 435L720 429L800 425L880 424L960 439L960 541L880 541L800 541L720 541L640 541L560 541L480 541L400 541L320 541L240 541L160 541L80 541L0 541Z" fill="#ffb200"></path><path d="M0 457L80 446L160 460L240 434L320 454L400 461L480 457L560 430L640 459L720 451L800 441L880 462L960 454L960 541L880 541L800 541L720 541L640 541L560 541L480 541L400 541L320 541L240 541L160 541L80 541L0 541Z" fill="#ee831a"></path><path d="M0 454L80 459L160 453L240 473L320 481L400 469L480 455L560 460L640 475L720 468L800 458L880 452L960 461L960 541L880 541L800 541L720 541L640 541L560 541L480 541L400 541L320 541L240 541L160 541L80 541L0 541Z" fill="#d35728"></path><path d="M0 499L80 478L160 486L240 487L320 503L400 486L480 477L560 497L640 502L720 477L800 494L880 492L960 499L960 541L880 541L800 541L720 541L640 541L560 541L480 541L400 541L320 541L240 541L160 541L80 541L0 541Z" fill="#b02e2e"></path><path d="M0 501L80 520L160 512L240 508L320 516L400 503L480 509L560 522L640 500L720 522L800 505L880 503L960 510L960 541L880 541L800 541L720 541L640 541L560 541L480 541L400 541L320 541L240 541L160 541L80 541L0 541Z" fill="#87002d"></path></svg>